<svg xmlns="http://www.w3.org/2000/svg" xmlns:xlink="http://www.w3.org/1999/xlink" xmlns:lucid="lucid" width="734" height="597.73"><g transform="translate(-80 -60)" lucid:page-tab-id="c09O-iJNrO5q"><path d="M0 0h1760v1360H0z" fill="#fff"/><path d="M491.64 191.14c0 28.24-23.2 51.13-51.82 51.13S388 219.37 388 191.14c0-28.25 23.2-51.14 51.82-51.14s51.82 22.9 51.82 51.14z" stroke="#000" stroke-width="4" fill="#fff"/><use xlink:href="#a" transform="matrix(1,0,0,1,388,140) translate(8.579999999999993 56.24375)"/><path d="M794 433.98c0 31.06-25.52 56.25-57 56.25s-57-25.2-57-56.25c0-31.07 25.52-56.25 57-56.25s57 25.18 57 56.25z" stroke="gray" stroke-width="2" fill="#fff"/><use xlink:href="#b" transform="matrix(1,0,0,1,680,377.72727272727275) translate(7.579999999999993 59.41)"/><path d="M679.96 386.72l-.64.77-80.1-65.47h.07v-1.23zm-105.6-86.3h-.07v1.24L481.3 225.7l.63-.78z"/><path d="M481.96 224.93l-.63.77-.4-.34.65-.75zM691.07 396.45L677.1 391l5.86-7.17z"/><path d="M692.33 397.47l-16.06-6.24 6.74-8.25zm-14.4-6.67l11.9 4.63-6.92-10.75z"/><use xlink:href="#c" transform="matrix(1,0,0,1,574.2869531036213,300.43129489859376) translate(0 14.4)"/><path d="M768 191.14c0 28.24-23.2 51.13-51.82 51.13s-51.82-22.9-51.82-51.13c0-28.25 23.2-51.14 51.82-51.14S768 162.9 768 191.14z" stroke="#000" stroke-width="4" fill="#fff"/><use xlink:href="#d" transform="matrix(1,0,0,1,664.3636363636365,140) translate(34.53 56.24375)"/><path d="M731.2 360.57l-1 .08-3.36-39.37h1zm-5.2-60.9h-1l-4.74-55.1 1-.1z"/><path d="M721.26 244.5l-1 .08-.04-.52 1-.07zM731.97 375.32l-5.84-13.82 9.24-.8z"/><path d="M732.1 376.93l-6.7-15.87 10.6-.9zm-5.24-15l4.97 11.78 2.9-12.43z"/><use xlink:href="#e" transform="matrix(1,0,0,1,713.9128746889487,299.6800740934472) translate(0 14.4)"/><path d="M520 377.73c0 33.13-26.86 60-60 60s-60-26.87-60-60c0-33.14 26.86-60 60-60s60 26.86 60 60z" stroke="gray" stroke-width="2" fill="#fff"/><use xlink:href="#f" transform="matrix(1,0,0,1,400,317.72727272727275) translate(31.054999999999993 63.15)"/><path d="M452.18 300.78l-1 .1-1.57-14.6h1zm-3.9-36.1h-1l-2.2-20.2 1-.1z"/><path d="M446.08 244.4l-1 .1-.05-.52 1-.08zM453.27 315.52l-6.14-13.7 9.22-.98z"/><path d="M453.45 317.13l-7.06-15.72 10.58-1.13zm-5.58-14.87l5.23 11.65 2.62-12.5z"/><use xlink:href="#c" transform="matrix(1,0,0,1,436.4415928915102,264.68681961837507) translate(0 14.4)"/><path d="M679.83 421.86l-.2.98-51.38-10.44v-1.02zm-76.58-15.55v1.03L535.7 393.6l.2-.97z"/><path d="M680.33 421.96l-.2.98-.5-.1.2-.98zM534.4 397.56l-13.07-7.38 14.9-1.7z"/><path d="M534.74 398.34l-15-8.48 17.12-1.96zm-11.83-7.84l11.13 6.3 1.57-7.75z"/><use xlink:href="#c" transform="matrix(1,0,0,1,603.2529457757205,398.5558041347972) translate(0 14.4)"/><path d="M340 440c0 33.14-26.86 60-60 60s-60-26.86-60-60 26.86-60 60-60 60 26.86 60 60z" stroke="#647456" stroke-opacity=".22" stroke-width="2" fill="#c7e8ac" fill-opacity=".22"/><use xlink:href="#g" transform="matrix(1,0,0,1,220,380) translate(30.055 63.15)"/><use xlink:href="#h" transform="matrix(1,0,0,1,220,380) translate(54.005 63.15)"/><path d="M322.23 375.17l-.84-.54 33.05-51.5h1.2zm88.94-138.5l-41.66 64.87h-1.17l42-65.4z"/><path d="M411.45 236.24l-.3.45-.83-.55.26-.42zM325.44 377.83l-11.6 9.5 3.8-14.5z"/><path d="M326.3 377.78l-13.35 10.9 4.38-16.66zm-11.6 8.18l9.9-8.08-6.66-4.27z"/><use xlink:href="#e" transform="matrix(1,0,0,1,349.48421607183104,301.53686490521187) translate(0 14.4)"/><path d="M480 577.73c0 33.13-26.86 60-60 60s-60-26.87-60-60c0-33.14 26.86-60 60-60s60 26.86 60 60z" stroke="#647456" stroke-opacity=".22" stroke-width="2" fill="#c7e8ac" fill-opacity=".22"/><use xlink:href="#g" transform="matrix(1,0,0,1,360,517.7272727272727) translate(30.055 51.9)"/><use xlink:href="#i" transform="matrix(1,0,0,1,360,517.7272727272727) translate(54.005 51.9)"/><use xlink:href="#j" transform="matrix(1,0,0,1,360,517.7272727272727) translate(32.529999999999994 73.5)"/><path d="M365.22 523.13l-.7.72-4.25-4.2h1.42zm-25.5-25.07h-1.4l-14.86-14.6.7-.72z"/><path d="M324.17 482.75l-.7.7-.37-.35.7-.7zM375.4 533.85l-13.43-6.7 6.5-6.6z"/><path d="M376.55 534.98l-15.42-7.7 7.47-7.58zM362.8 527l11.44 5.7-5.9-11.32z"/><use xlink:href="#c" transform="matrix(1,0,0,1,337.5,498.06363636363636) translate(0 14.4)"/><path d="M555.94 516.63L476.2 552.8l-.42-.92 80.16-36.34zm113.64-51.53l-88.64 40.2v-1.1l88.23-40z"/><path d="M476.2 552.8l-.45.2-.43-.9.47-.22zM671.74 468.66l-3.83-8.44 14.92-1.67z"/><path d="M671.57 469.5l-4.4-9.7 17.12-1.92zm-2.92-8.86l3.26 7.2 9.45-8.63z"/><use xlink:href="#c" transform="matrix(1,0,0,1,555.936327531272,499.6158465991328) translate(0 14.4)"/><path d="M335.27 140c0 33.14-26.86 60-60 60-33.13 0-60-26.86-60-60s26.87-60 60-60c33.14 0 60 26.86 60 60z" stroke="#000" stroke-width="4" fill="#fff"/><use xlink:href="#k" transform="matrix(1,0,0,1,215.27272727272714,80) translate(42.505 63.15)"/><path d="M220 290c0 33.14-26.86 60-60 60s-60-26.86-60-60 26.86-60 60-60 60 26.86 60 60z" stroke="gray" stroke-width="2" fill="#fff"/><use xlink:href="#l" transform="matrix(1,0,0,1,100,230) translate(31.054999999999993 63.15)"/><path d="M304.1 239.62l-71 25.08-.32-.94 71.32-25.2zm84.78-29.96l-59.78 21.12v-1.06l59.44-21z"/><path d="M389.36 209.5l-.5.17-.33-.94.47-.17zM234.02 268.76l-15 .4 11.9-9.14z"/><path d="M234.72 269.25l-17.22.44 13.67-10.5zm-14.17-.64l12.77-.32-2.63-7.44z"/><g><use xlink:href="#e" transform="matrix(1,0,0,1,304.10129402683583,223.8705954339883) translate(0 14.4)"/></g><defs><path d="M141-36C126-15 110 5 73 4 37 3 15-17 15-53c-1-64 63-63 125-63 3-35-9-54-41-54-24 1-41 7-42 31l-33-3c5-37 33-52 76-52 45 0 72 20 72 64v82c-1 20 7 32 28 27v20c-31 9-61-2-59-35zM48-53c0 20 12 33 32 33 41-3 63-29 60-74-43 2-92-5-92 41" id="m"/><path d="M115-194c55 1 70 41 70 98S169 2 115 4C84 4 66-9 55-30l1 105H24l-1-265h31l2 30c10-21 28-34 59-34zm-8 174c40 0 45-34 45-75s-6-73-45-74c-42 0-51 32-51 76 0 43 10 73 51 73" id="n"/><path d="M24 0v-261h32V0H24" id="o"/><path d="M24-231v-30h32v30H24zM24 0v-190h32V0H24" id="p"/><path d="M96-169c-40 0-48 33-48 73s9 75 48 75c24 0 41-14 43-38l32 2c-6 37-31 61-74 61-59 0-76-41-82-99-10-93 101-131 147-64 4 7 5 14 7 22l-32 3c-4-21-16-35-41-35" id="q"/><path d="M59-47c-2 24 18 29 38 22v24C64 9 27 4 27-40v-127H5v-23h24l9-43h21v43h35v23H59v120" id="r"/><path d="M100-194c62-1 85 37 85 99 1 63-27 99-86 99S16-35 15-95c0-66 28-99 85-99zM99-20c44 1 53-31 53-75 0-43-8-75-51-75s-53 32-53 75 10 74 51 75" id="s"/><path d="M117-194c89-4 53 116 60 194h-32v-121c0-31-8-49-39-48C34-167 62-67 57 0H25l-1-190h30c1 10-1 24 2 32 11-22 29-35 61-36" id="t"/><g id="a"><use transform="matrix(0.05,0,0,0.05,0,0)" xlink:href="#m"/><use transform="matrix(0.05,0,0,0.05,10,0)" xlink:href="#n"/><use transform="matrix(0.05,0,0,0.05,20,0)" xlink:href="#n"/><use transform="matrix(0.05,0,0,0.05,30,0)" xlink:href="#o"/><use transform="matrix(0.05,0,0,0.05,33.95,0)" xlink:href="#p"/><use transform="matrix(0.05,0,0,0.05,37.900000000000006,0)" xlink:href="#q"/><use transform="matrix(0.05,0,0,0.05,46.900000000000006,0)" xlink:href="#m"/><use transform="matrix(0.05,0,0,0.05,56.900000000000006,0)" xlink:href="#r"/><use transform="matrix(0.05,0,0,0.05,61.900000000000006,0)" xlink:href="#p"/><use transform="matrix(0.05,0,0,0.05,65.85000000000001,0)" xlink:href="#s"/><use transform="matrix(0.05,0,0,0.05,75.85000000000001,0)" xlink:href="#t"/></g><path d="M100-194c63 0 86 42 84 106H49c0 40 14 67 53 68 26 1 43-12 49-29l28 8c-11 28-37 45-77 45C44 4 14-33 15-96c1-61 26-98 85-98zm52 81c6-60-76-77-97-28-3 7-6 17-6 28h103" id="u"/><path d="M108 0H70L1-190h34L89-25l56-165h34" id="v"/><path d="M114-163C36-179 61-72 57 0H25l-1-190h30c1 12-1 29 2 39 6-27 23-49 58-41v29" id="w"/><path d="M210-169c-67 3-38 105-44 169h-31v-121c0-29-5-50-35-48C34-165 62-65 56 0H25l-1-190h30c1 10-1 24 2 32 10-44 99-50 107 0 11-21 27-35 58-36 85-2 47 119 55 194h-31v-121c0-29-5-49-35-48" id="x"/><g id="b"><use transform="matrix(0.05,0,0,0.05,0,0)" xlink:href="#u"/><use transform="matrix(0.05,0,0,0.05,10,0)" xlink:href="#t"/><use transform="matrix(0.05,0,0,0.05,20,0)" xlink:href="#v"/><use transform="matrix(0.05,0,0,0.05,29,0)" xlink:href="#p"/><use transform="matrix(0.05,0,0,0.05,32.95,0)" xlink:href="#w"/><use transform="matrix(0.05,0,0,0.05,38.900000000000006,0)" xlink:href="#s"/><use transform="matrix(0.05,0,0,0.05,48.900000000000006,0)" xlink:href="#t"/><use transform="matrix(0.05,0,0,0.05,58.900000000000006,0)" xlink:href="#x"/><use transform="matrix(0.05,0,0,0.05,73.85000000000001,0)" xlink:href="#u"/><use transform="matrix(0.05,0,0,0.05,83.85000000000001,0)" xlink:href="#t"/><use transform="matrix(0.05,0,0,0.05,93.85000000000001,0)" xlink:href="#r"/></g><path d="M27 0v-27h64v-190l-56 39v-29l58-41h29v221h61V0H27" id="y"/><path d="M33-154v-36h34v36H33zM33 0v-36h34V0H33" id="z"/><g id="c"><use transform="matrix(0.05,0,0,0.05,0,0)" xlink:href="#y"/><use transform="matrix(0.05,0,0,0.05,10,0)" xlink:href="#z"/><use transform="matrix(0.05,0,0,0.05,15,0)" xlink:href="#t"/></g><g id="d"><use transform="matrix(0.05,0,0,0.05,0,0)" xlink:href="#n"/><use transform="matrix(0.05,0,0,0.05,10,0)" xlink:href="#o"/><use transform="matrix(0.05,0,0,0.05,13.949999999999998,0)" xlink:href="#m"/><use transform="matrix(0.05,0,0,0.05,23.95,0)" xlink:href="#t"/></g><g id="e"><use transform="matrix(0.05,0,0,0.05,0,0)" xlink:href="#y"/><use transform="matrix(0.05,0,0,0.05,10,0)" xlink:href="#z"/><use transform="matrix(0.05,0,0,0.05,15,0)" xlink:href="#y"/></g><path d="M177-190C167-65 218 103 67 71c-23-6-38-20-44-43l32-5c15 47 100 32 89-28v-30C133-14 115 1 83 1 29 1 15-40 15-95c0-56 16-97 71-98 29-1 48 16 59 35 1-10 0-23 2-32h30zM94-22c36 0 50-32 50-73 0-42-14-75-50-75-39 0-46 34-46 75s6 73 46 73" id="A"/><g id="f"><use transform="matrix(0.05,0,0,0.05,0,0)" xlink:href="#o"/><use transform="matrix(0.05,0,0,0.05,3.95,0)" xlink:href="#s"/><use transform="matrix(0.05,0,0,0.05,13.949999999999998,0)" xlink:href="#A"/><use transform="matrix(0.05,0,0,0.05,23.95,0)" xlink:href="#A"/><use transform="matrix(0.05,0,0,0.05,33.95,0)" xlink:href="#p"/><use transform="matrix(0.05,0,0,0.05,37.900000000000006,0)" xlink:href="#t"/><use transform="matrix(0.05,0,0,0.05,47.900000000000006,0)" xlink:href="#A"/></g><g id="g"><use transform="matrix(0.05,0,0,0.05,0,0)" xlink:href="#A"/><use transform="matrix(0.05,0,0,0.05,10,0)" xlink:href="#p"/><use transform="matrix(0.05,0,0,0.05,13.949999999999998,0)" xlink:href="#r"/></g><g id="h"><use transform="matrix(0.05,0,0,0.05,0,0)" xlink:href="#w"/><use transform="matrix(0.05,0,0,0.05,5.95,0)" xlink:href="#u"/><use transform="matrix(0.05,0,0,0.05,15.949999999999998,0)" xlink:href="#n"/><use transform="matrix(0.05,0,0,0.05,25.950000000000003,0)" xlink:href="#s"/></g><g id="i"><use transform="matrix(0.05,0,0,0.05,0,0)" xlink:href="#w"/><use transform="matrix(0.05,0,0,0.05,5.95,0)" xlink:href="#u"/><use transform="matrix(0.05,0,0,0.05,15.949999999999998,0)" xlink:href="#n"/><use transform="matrix(0.05,0,0,0.05,25.950000000000003,0)" xlink:href="#s"/></g><path d="M115-194c53 0 69 39 70 98 0 66-23 100-70 100C84 3 66-7 56-30L54 0H23l1-261h32v101c10-23 28-34 59-34zm-8 174c40 0 45-34 45-75 0-40-5-75-45-74-42 0-51 32-51 76 0 43 10 73 51 73" id="B"/><path d="M106-169C34-169 62-67 57 0H25v-261h32l-1 103c12-21 28-36 61-36 89 0 53 116 60 194h-32v-121c2-32-8-49-39-48" id="C"/><g id="j"><use transform="matrix(0.05,0,0,0.05,0,0)" xlink:href="#B"/><use transform="matrix(0.05,0,0,0.05,10,0)" xlink:href="#w"/><use transform="matrix(0.05,0,0,0.05,15.949999999999998,0)" xlink:href="#m"/><use transform="matrix(0.05,0,0,0.05,25.950000000000003,0)" xlink:href="#t"/><use transform="matrix(0.05,0,0,0.05,35.95,0)" xlink:href="#q"/><use transform="matrix(0.05,0,0,0.05,44.95,0)" xlink:href="#C"/></g><path d="M84 4C-5 8 30-112 23-190h32v120c0 31 7 50 39 49 72-2 45-101 50-169h31l1 190h-30c-1-10 1-25-2-33-11 22-28 36-60 37" id="D"/><g id="k"><use transform="matrix(0.05,0,0,0.05,0,0)" xlink:href="#m"/><use transform="matrix(0.05,0,0,0.05,10,0)" xlink:href="#D"/><use transform="matrix(0.05,0,0,0.05,20,0)" xlink:href="#r"/><use transform="matrix(0.05,0,0,0.05,25,0)" xlink:href="#C"/></g><path d="M135-143c-3-34-86-38-87 0 15 53 115 12 119 90S17 21 10-45l28-5c4 36 97 45 98 0-10-56-113-15-118-90-4-57 82-63 122-42 12 7 21 19 24 35" id="E"/><g id="l"><use transform="matrix(0.05,0,0,0.05,0,0)" xlink:href="#v"/><use transform="matrix(0.05,0,0,0.05,9,0)" xlink:href="#u"/><use transform="matrix(0.05,0,0,0.05,19,0)" xlink:href="#w"/><use transform="matrix(0.05,0,0,0.05,24.95,0)" xlink:href="#E"/><use transform="matrix(0.05,0,0,0.05,33.95,0)" xlink:href="#p"/><use transform="matrix(0.05,0,0,0.05,37.900000000000006,0)" xlink:href="#s"/><use transform="matrix(0.05,0,0,0.05,47.900000000000006,0)" xlink:href="#t"/></g></defs></g></svg>